<svg id="Layer_1" data-name="Layer 1" xmlns="http://www.w3.org/2000/svg" width="64" height="64" viewBox="0 0 64 64"><defs><style>.cls-1{fill:#1d1d1b;}</style></defs><title>stormtrooper</title><g id="stormtrooper"><path class="cls-1" d="M52.29,35.61s2.21-.5,2.25-5.83-3.08-5.5-3.08-5.5.13-1.83,0-4.17-.71-8.46-3.33-11.67S37.79,1.53,28.92,2.95,16.67,8.86,14.21,13.2,13.51,24,13.37,24c-1.29.17-3.12,2.17-3,5.29s1.38,4.17,1.38,4.17a8.16,8.16,0,0,0-1.71,2.29C9.08,37.53,7.5,41.2,8,44.66a11.25,11.25,0,0,0,3.21,6s-.33.92.5,3.46a9.14,9.14,0,0,0,6.46,6c3.58,1,8.17-.83,8.17-.83A10.93,10.93,0,0,0,32,61.36a15.36,15.36,0,0,0,6.13-1.54,16.41,16.41,0,0,0,2.21.58c.71.08,6.63,0,9.46-1.58S52,52.11,52,52.11a4.19,4.19,0,0,0,1.21-.87c.42-.5,3-3.33,3-7S52.29,35.61,52.29,35.61ZM51.42,26c.78-.41,1.54,1,1.63,1.33a6,6,0,0,1,0,1.17,1.07,1.07,0,0,0-1.5.67,3.24,3.24,0,0,0,.58,3.08,1.53,1.53,0,0,0,1.13.17s-.75,2-1.42,2.13-1.67-1.42-1.75-3.29S50.62,26.41,51.42,26ZM21.75,7.2c4.79-2.87,10.42-3.38,15.83-2.33S47.33,10,48.33,12.41a15.78,15.78,0,0,1,1,5.29s-1.83.42-1.79.63a38.29,38.29,0,0,1,.13,4.88,58,58,0,0,1-16.21,1.88A55.75,55.75,0,0,1,17,23.2a20.91,20.91,0,0,1-.58-4.25,5,5,0,0,0,0-1.92,10,10,0,0,0-1.12-1S17,10.07,21.75,7.2Zm-8.5,18.12c.63-.25,2.58,1,2.17,4.38s-1.67,4-2.25,3.88S12,31.74,12,31.74A1,1,0,0,0,13.67,31a6.61,6.61,0,0,0,.08-3.29A2.36,2.36,0,0,0,12,26.95S12.62,25.57,13.25,25.32ZM49.62,55c-1.42,3.21-3.33,3.21-6.17,3.29a38.69,38.69,0,0,1-5.58-.54,10.37,10.37,0,0,1-6,1.58c-3.54-.21-4.83-1.92-5.25-2s-4.42,1.79-8.5.29-5.62-6.21-4-8.12,7.25-3.25,10.75-6,4.13-4.42,7.79-4.5c2.29-.05,7.17,5,11.79,7.63S51,51.82,49.62,55Zm1.54-5A10,10,0,0,0,48,46.28c-2-1.29-3.92-2.62-3.92-2.62S45.92,40.7,47,40a2.94,2.94,0,0,1,3,.08c.38.38.54.5.67.33a1.68,1.68,0,0,0,.29-.83,5.55,5.55,0,0,0-2.67-1.33C47.08,38,46,39.36,45.08,40.57s-1.5,1.92-1.5,1.92S41,40,38.42,37.16,34,33.49,32.08,33.53s-3.92,3.79-6.67,5.79S21,42.45,21,42.45s-3.92-4.21-4.87-4.29-3,1.17-2.87,1.46.58,1.08.83,1,1.75-1.17,2.29-.79,3.79,3.46,3.67,3.79S17.62,45,15.29,46.49a12.81,12.81,0,0,0-2.87,2.21s-3-2.75-2.46-6.17a27.36,27.36,0,0,1,3-7.71s2.83-.42,3.25-2.62a32.71,32.71,0,0,0,.21-6,53.59,53.59,0,0,0,17.21,1.88c9.67-.62,15.71-1.37,15.71-1.37s-1,4.29-.25,5.92a14.69,14.69,0,0,0,1.83,2.83s4,7.92,3.38,10.17S51.17,50,51.17,50ZM20.75,11.86c.67-.67,3.17-2.63,3.29-2.79s-.62-.75-.75-.83-.83.17-2.83,2A8,8,0,0,0,18,13.78c.25,0,1,.79,1.21.83S20.08,12.53,20.75,11.86Zm24.79-.37c.21,0,.17-.12.33-.54s-2.2-1.56-2.54-1.62-.21,1-.08,1.17A11.24,11.24,0,0,0,45.54,11.49Zm2.13,3.42a.6.6,0,0,0,.17-.58c-.08-.37-4.58-2.54-4.58-2.54-.29.08,0,.83.08,1S47.67,14.91,47.67,14.91Zm-.08,2.29c.13-.08.17-.5.08-.75a32.52,32.52,0,0,0-4.42-2,3.14,3.14,0,0,0-.12,1A36.9,36.9,0,0,0,47.58,17.2Zm-1,2.13c.29,0,.08-.42,0-.75a10,10,0,0,0-3.67-1.71c-.17.08-.37.71-.25.88A26.93,26.93,0,0,0,46.54,19.32Zm-.12,2.58c.13,0,.25-.71.13-.87a21.38,21.38,0,0,0-3.79-1.83c-.21,0-.21,1-.08,1.13S46.29,21.86,46.42,21.91ZM44.25,23.2a.59.59,0,0,0,.46-.42c.08-.21-2.27-.9-2.46-1.08s-.25.58-.08.79A6.17,6.17,0,0,0,44.25,23.2Zm-21,10.25c3.38-.37,5.21-2.75,5.21-3.5s-1.33-1-4.37-1.17A36.12,36.12,0,0,1,18.5,28c-.83.29-.92,5-.62,5.38S19.83,33.82,23.21,33.45ZM45,28.95c-1.71,0-6.86-.44-7.33.25s1.58,3.21,3.83,4.17a10.15,10.15,0,0,0,6,.17c.29-.25.08-4,0-4.33S46.67,28.95,45,28.95Zm.5,7.17C44,36.2,42.33,35.53,40,34s-4.71-3.79-6.29-4-2.46.17-4.33,1.25S24,35.53,21.25,35.91a6.12,6.12,0,0,1-4.54-1.29c-.21,0-.62.58-.62.79s2.13,2,5.46,1.67S30.62,31.24,33,31.24s7.46,4.88,9.46,5.79a7.45,7.45,0,0,0,4.88.08c.21-.12.08-.71,0-1S47,36,45.46,36.11ZM12.71,42.74c0,.17.25.83.46.83A11.29,11.29,0,0,0,15.5,42a.54.54,0,0,0-.21-.79C15,41,12.76,42.52,12.71,42.74Zm.92,1.71c0,.17.25.83.46.83a11.29,11.29,0,0,0,2.33-1.54.54.54,0,0,0-.21-.79C15.87,42.74,13.68,44.23,13.62,44.45Zm35-3.29a.54.54,0,0,0-.21.79,11.29,11.29,0,0,0,2.33,1.54c.21,0,.5-.67.46-.83S49,40.95,48.63,41.16Zm-.92,1.71a.54.54,0,0,0-.21.79,11.29,11.29,0,0,0,2.33,1.54c.21,0,.5-.67.46-.83S48,42.66,47.72,42.86Zm-8.46,2.42c.21,0,.5-.67.46-.83s-2.25-1.71-2.58-1.5a.54.54,0,0,0-.21.79A11.29,11.29,0,0,0,39.26,45.28ZM38.34,47c.21,0,.5-.67.46-.83s-2.25-1.71-2.58-1.5a.54.54,0,0,0-.21.79A11.29,11.29,0,0,0,38.34,47ZM24.62,48.16c.25-.12.71-.33.54-.5s-1.54-2-1.79-1.83a1.24,1.24,0,0,0-.37.58C23.33,46.74,24.37,48.28,24.62,48.16Zm15.29.33a4,4,0,0,0,1.42-1.29c.13-.37-.42-.67-.67-.67s-1.21,1.17-1.29,1.38C39.37,47.91,39.75,48.49,39.92,48.49Zm.42,1.5c-1.75,0-1.12,0-2.75-1.67S34,45.45,32,45.57c-3.33.21-4.08,3.54-5,4.13s-2.12-.46-4.83-1.21a5,5,0,0,0-5.87,3.58c-.37,2.08.63,4.42,3.75,5s6.25-1.08,6.63-.87a8.38,8.38,0,0,0,5.5,2.25,6.85,6.85,0,0,0,5.63-1.87,7.14,7.14,0,0,1,2.13.25C41.08,57,44,57.74,46,57s3.38-2.83,1.79-5.67S42.08,50,40.33,50Zm6.88,4C47,55.41,46,56.53,43.58,56.45s-5-1.37-5.75-1.25-2.58,2.08-4.25,2.33a7.63,7.63,0,0,1-4.67-1A12,12,0,0,0,26.75,55c-.67-.21-2.92,1.29-5.71,1s-3.71-2.08-3.37-3.75,1.88-3.08,3.58-2.62,4.71,2.13,5.88,1.5,2.58-4.33,5.38-4.33c2.34,0,4.21,3.29,5.46,3.92s4.92-.25,7,.13A2.52,2.52,0,0,1,47.21,54ZM20.62,51.24c-1,.54-1.87,2-.46,3.17a1.87,1.87,0,0,0,3.21-1.08C23.5,51.95,22.05,50.43,20.62,51.24Zm22.5.46c-1,.54-1.87,2-.46,3.17a1.87,1.87,0,0,0,3.21-1.08C46,52.41,44.55,50.89,43.12,51.7Zm-9.27-.32a15.07,15.07,0,0,0-.07-2.12c-.11-.33-2.38-.15-2.48-.11a14,14,0,0,0-.18,2.19s-1.39-.15-1.5-.11a29.05,29.05,0,0,0-.29,3.25c0,.18,1.5.37,1.5.37s0,1.06.07,1.28a9.38,9.38,0,0,0,3,0,7.34,7.34,0,0,0,0-1.53s1.5-.22,1.68-.29a11.69,11.69,0,0,0,0-2.78C35.65,51.34,33.86,51.38,33.86,51.38Z"/></g></svg>